<svg style="" width="37.816406" height="25.183594" version="1.1" xmlns="http://www.w3.org/2000/svg">
<path d="M1.252130 2.707031 C1.498225 2.843751 2.434739 3.349605 4.061700 4.224609 C5.688661 5.099614 7.438644 6.036128 9.311700 7.034180 C11.184756 8.032232 12.900559 8.955074 14.459161 9.802734 C16.017763 10.650395 16.865410 11.101562 17.002130 11.156250 C17.248225 11.292969 17.535331 11.395507 17.863458 11.463867 C18.191584 11.532227 18.533378 11.566406 18.888848 11.566406 C19.244319 11.566406 19.586112 11.532227 19.914239 11.463867 C20.242366 11.395507 20.529472 11.292969 20.775567 11.156250 C20.912287 11.101562 21.759934 10.650395 23.318536 9.802734 C24.877138 8.955074 26.592941 8.032232 28.465997 7.034180 C30.339053 6.036128 32.089036 5.099614 33.715997 4.224609 C35.342958 3.349605 36.279472 2.843751 36.525567 2.707031 C37.045101 2.433592 37.434746 1.914066 37.694513 1.148438 C37.954279 0.382809 37.605650 -0.000000 36.648614 -0.000000 L1.129083 -0.000000 C0.172047 -0.000000 -0.176583 0.382809 0.083184 1.148438 C0.342951 1.914066 0.732596 2.433592 1.252130 2.707031 Z M37.017755 7.341797 C36.716972 7.478516 35.739443 7.977535 34.085138 8.838867 C32.430832 9.700200 30.646671 10.629878 28.732598 11.627930 C26.818526 12.625982 25.061708 13.541988 23.462091 14.375977 C21.862473 15.209965 20.966974 15.681640 20.775567 15.791016 C20.420097 15.982423 20.105647 16.098633 19.832208 16.139648 C19.558769 16.180664 19.244319 16.201172 18.888848 16.201172 C18.533378 16.201172 18.218928 16.180664 17.945489 16.139648 C17.672050 16.098633 17.357600 15.982423 17.002130 15.791016 C16.810723 15.681640 15.915224 15.209965 14.315606 14.375977 C12.715989 13.541988 10.966006 12.625982 9.065606 11.627930 C7.165206 10.629878 5.394716 9.700200 3.754083 8.838867 C2.113450 7.977535 1.142756 7.478516 0.841973 7.341797 C0.431815 7.123046 0.192560 7.095702 0.124200 7.259766 C0.055840 7.423829 0.021661 7.601562 0.021661 7.792969 C0.021661 7.875000 0.021661 8.722648 0.021661 10.335938 C0.021661 11.949227 0.021661 13.699209 0.021661 15.585938 C0.021661 17.472666 0.021661 19.195305 0.021661 20.753906 C0.021661 22.312508 0.021661 23.091797 0.021661 23.091797 C0.021661 23.529299 0.260916 23.987302 0.739434 24.465820 C1.217952 24.944338 1.675956 25.183594 2.113458 25.183594 L35.746270 25.183594 C36.183773 25.183594 36.641776 24.944338 37.120294 24.465820 C37.598812 23.987302 37.838067 23.529299 37.838067 23.091797 C37.838067 23.091797 37.838067 22.312508 37.838067 20.753906 C37.838067 19.195305 37.838067 17.472666 37.838067 15.585938 C37.838067 13.699209 37.838067 11.949227 37.838067 10.335938 C37.838067 8.722648 37.838067 7.875000 37.838067 7.792969 C37.838067 7.601562 37.803888 7.423829 37.735528 7.259766 C37.667168 7.095702 37.427913 7.123046 37.017755 7.341797 Z M39.929864 31.500000" style="fill:black"/>
</svg>