<svg style="" width="36.937500" height="30.000000" version="1.1" xmlns="http://www.w3.org/2000/svg">
<path d="M36.937500 3.562500 C35.890620 5.093758 34.625007 6.398432 33.140625 7.476562 C33.156250 7.695314 33.164062 8.023435 33.164062 8.460938 C33.164062 10.492198 32.867190 12.519521 32.273438 14.542969 C31.679685 16.566416 30.777350 18.507803 29.566406 20.367188 C28.355463 22.226572 26.914071 23.871087 25.242188 25.300781 C23.570304 26.730476 21.554699 27.871089 19.195312 28.722656 C16.835926 29.574223 14.312513 30.000000 11.625000 30.000000 C7.390604 30.000000 3.515643 28.867199 0.000000 26.601562 C0.546878 26.664063 1.156247 26.695312 1.828125 26.695312 C5.343768 26.695312 8.476549 25.617198 11.226562 23.460938 C9.585929 23.429687 8.117194 22.925786 6.820312 21.949219 C5.523431 20.972651 4.632815 19.726570 4.148438 18.210938 C4.664065 18.289063 5.140623 18.328125 5.578125 18.328125 C6.250003 18.328125 6.914059 18.242188 7.570312 18.070312 C5.820304 17.710936 4.371099 16.839851 3.222656 15.457031 C2.074213 14.074212 1.500000 12.468759 1.500000 10.640625 L1.500000 10.546875 C2.562505 11.140628 3.703119 11.460937 4.921875 11.507812 C3.890620 10.820309 3.070316 9.921881 2.460938 8.812500 C1.851559 7.703119 1.546875 6.500006 1.546875 5.203125 C1.546875 3.828118 1.890622 2.554693 2.578125 1.382812 C4.468759 3.710949 6.769518 5.574212 9.480469 6.972656 C12.191420 8.371101 15.093735 9.148437 18.187500 9.304688 C18.062499 8.710935 18.000000 8.132815 18.000000 7.570312 C18.000000 5.476552 18.738274 3.691414 20.214844 2.214844 C21.691414 0.738274 23.476552 -0.000000 25.570312 -0.000000 C27.757823 -0.000000 29.601555 0.796867 31.101562 2.390625 C32.804696 2.062498 34.406242 1.453129 35.906250 0.562500 C35.328122 2.359384 34.218758 3.749995 32.578125 4.734375 C34.031257 4.578124 35.484368 4.187503 36.937500 3.562500 Z M37.968750 30.000000" style="fill:black"/>
</svg>